<?xml version="1.0" encoding="UTF-8" standalone="no"?>
<svg
   height="616.38245"
   preserveAspectRatio="none"
   style="display:block"
   version="1.1"
   viewBox="0 0 1232.7649 1232.7649"
   width="616.38245"
   id="svg57"
   sodipodi:docname="logo.svg"
   inkscape:version="1.4.3 (0d15f75042, 2025-12-25)"
   xmlns:inkscape="http://www.inkscape.org/namespaces/inkscape"
   xmlns:sodipodi="http://sodipodi.sourceforge.net/DTD/sodipodi-0.dtd"
   xmlns="http://www.w3.org/2000/svg"
   xmlns:svg="http://www.w3.org/2000/svg">
  <defs
     id="defs57" />
  <sodipodi:namedview
     id="namedview57"
     pagecolor="#ffffff"
     bordercolor="#000000"
     borderopacity="0.25"
     inkscape:showpageshadow="2"
     inkscape:pageopacity="0.0"
     inkscape:pagecheckerboard="0"
     inkscape:deskcolor="#d1d1d1"
     inkscape:zoom="1.4140625"
     inkscape:cx="347.9337"
     inkscape:cy="281.45856"
     inkscape:window-width="3072"
     inkscape:window-height="1659"
     inkscape:window-x="0"
     inkscape:window-y="0"
     inkscape:window-maximized="1"
     inkscape:current-layer="svg57" />
  <circle
     style="fill:#652801;fill-opacity:1;stroke:#000000;stroke-width:2.26772;stroke-linecap:round;stroke-linejoin:round"
     id="path57"
     cx="616.38245"
     cy="616.38245"
     r="615.2486" />
  <path
     d="m 246.29151,848.09183 c 22.25662,-3.23824 43.8,-10.24512 63.7068,-20.71357 42.96532,-22.57696 68.77982,-59.57805 88.65941,-102.32423 6.43949,-13.84627 12.0792,-28.05056 18.7797,-41.7761 14.27688,-29.24606 31.31463,-57.10679 52.87894,-81.58133 22.61325,-25.66446 49.27361,-47.12827 80.21416,-61.9188 7.91555,-3.784 16.03697,-7.40887 24.3224,-10.29677 28.46721,-9.9206 65.32314,-16.67764 85.64589,-40.58758 37.03738,-43.57109 13.51826,-104.822 74.18642,-149.55369 21.18815,-15.62172 48.38518,-23.00407 74.47256,-18.81669 17.92897,2.87743 34.90183,11.98498 45.55872,26.85367 3.57323,4.22786 4.56424,6.2057 7.22323,11.12447 13.97887,9.70077 25.15918,21.54059 28.34159,38.98033 0.3978,2.23746 0.74675,4.48189 1.0608,6.73121 -11.03375,-5.23143 -23.18413,-9.70774 -35.50201,-10.34632 -14.85822,14.68026 -23.05852,32.83256 -23.35862,53.8211 -0.28613,19.68907 6.26014,33.82985 13.96493,51.32193 13.8044,22.2001 24.10536,70.40522 20.53212,96.40607 -2.79856,61.16018 -32.49408,119.23705 -77.3828,160.29362 -32.36845,29.65572 -72.64407,49.28756 -115.94857,56.51777 -0.91424,8.00488 -1.96109,15.99579 -3.15449,23.97275 5.22725,5.52037 36.15105,36.34647 40.96654,38.53088 9.81243,4.45259 46.27055,11.96196 58.97925,14.79542 1.12362,0.21635 2.18442,0.46061 3.30105,0.71186 l 0.47457,0.69091 c -4.08269,0.57926 -8.93307,0.3978 -13.08556,0.2652 -16.70765,1.06081 -42.32744,0.1326 -59.62132,0.10469 -31.76128,0.16749 -63.52954,0.11864 -95.29501,-0.15354 -2.84323,0.0907 -25.10683,0.41176 -25.66515,-0.29312 0.0454,-0.11166 0.09,-0.21634 0.13539,-0.32801 0.94705,-0.61415 1.85152,-0.67696 2.9521,-0.88633 18.12997,-4.58518 37.85881,-10.66386 55.73195,-14.62792 -11.15937,-10.53824 -28.39742,-24.00067 -38.00118,-35.69044 -3.23545,-3.93614 -9.20316,-22.33967 -11.20962,-27.99962 -6.62374,-2.33795 -15.66918,-3.99894 -22.71095,-6.21826 -14.42274,-4.5433 -29.85393,-8.81443 -44.74077,-11.11749 -32.61202,-5.0437 -77.65776,4.92715 -108.28915,18.01969 -23.00896,9.83337 -37.7283,19.248 -63.26573,26.70851 -37.3954,10.92209 -62.24611,12.01778 -100.21169,10.73365 -1.83547,0.0419 -3.78609,0.27916 -5.57131,-0.30707 -0.26869,-0.0838 -1.38044,-0.61415 -0.79212,-1.01195 0.4662,-0.31405 1.23877,-0.0907 1.71753,-0.0349 z"
     fill="#1c1a1a"
     id="path2"
     style="stroke-width:0.697897" />
  <path
     d="m 665.56554,506.56838 c 20.46233,-19.10492 31.6566,-32.77253 34.3086,-62.6788 0.81654,-9.40486 -0.0628,-19.55646 2.91721,-28.66751 17.66377,-53.9858 74.57027,-86.06113 129.82973,-75.81391 7.60708,1.41184 13.97889,5.52943 20.97181,7.63917 l 1.12362,0.32941 c 3.57323,4.22786 4.56424,6.2057 7.22323,11.12447 -3.86635,7.30349 -10.17534,12.8092 -17.9499,14.88684 -24.30078,6.49323 -49.5786,-23.47934 -68.03797,8.05582 -6.18337,10.66526 -6.02285,21.65085 -3.22429,33.04123 4.82247,19.62764 21.82324,29.21465 32.71042,43.93748 39.40327,53.2579 32.4522,117.67377 -11.33384,164.76156 -1.05382,-15.07108 -3.2522,-31.77664 -10.64292,-45.2272 4.06176,-6.99921 8.27705,-14.0033 11.14541,-21.62154 8.31195,-22.07168 8.25612,-47.20364 2.77763,-69.94042 -1.95411,-8.08583 -5.76463,-15.90437 -9.99388,-23.01663 -8.50737,-14.28106 -16.37266,-28.68984 -24.21004,-43.32753 l -0.97008,2.13626 c 1.64006,8.12631 8.63996,25.78171 11.33384,34.80481 10.11951,33.88847 5.26912,61.7841 -8.78652,93.18597 -7.32791,-6.06193 -13.43451,-11.28988 -21.01367,-17.19827 17.81731,-31.04384 19.24102,-59.47476 6.93012,-92.7756 -4.73174,-12.81478 -9.42859,-22.97965 -7.34886,-36.72054 3.62209,-23.84643 16.33777,-38.92728 34.43423,-53.04434 -35.04837,15.45981 -48.62247,51.86141 -40.35239,87.3013 6.89522,29.53569 1.72381,58.18435 -16.31683,83.04622 l -16.90306,-8.05372 c 21.46033,-22.32363 27.06444,-45.78552 20.80431,-75.67853 -6.73471,-32.15141 -0.31406,-47.3502 17.34273,-73.62462 -1.08174,0.85772 -2.13556,1.74823 -3.16147,2.67015 -28.75335,25.41043 -28.20201,52.53977 -28.62773,87.68096 -0.25822,21.24816 -14.37667,40.15558 -29.93279,53.7876 -4.94809,-0.23798 -10.08461,-0.66161 -15.04665,-1.00009 z"
     fill="rgb(237,104,51)"
     id="path3"
     style="fill:#ed9933;fill-opacity:1;stroke-width:0.697897" />
  <path
     d="m 816.70904,347.58681 c 12.56214,0.0886 14.61396,13.49313 4.92715,19.67789 -13.49732,-0.28334 -15.20019,-12.12735 -4.92715,-19.67789 z"
     fill="#1c1a1a"
     id="path6"
     style="stroke-width:0.697897" />
  <path
     d="m 846.44643,499.00946 c 13.8044,22.2001 24.10536,70.40522 20.53212,96.40607 l -0.0977,-5.90491 c -0.9631,1.56608 -3.53834,14.99571 -4.29207,17.87104 -10.1195,38.39968 -45.02831,66.77965 -80.37678,80.92532 3.06377,-8.01046 5.06673,-14.51276 7.50937,-22.71305 4.64101,-3.81191 10.28002,-7.08226 14.87916,-11.14681 31.39139,-27.74279 55.80384,-75.80415 51.10699,-118.36259 -1.326,-12.02546 -6.67189,-24.88421 -9.11453,-36.34716 z"
     fill="rgb(237,104,51)"
     id="path7"
     style="fill:#ed9933;fill-opacity:1;stroke-width:0.697897" />
  <path
     d="m 441.25175,800.9838 c -13.67389,-126.30535 63.56514,-248.5643 195.8396,-263.60048 31.81711,-3.6172 71.15755,3.39736 96.53308,24.09558 19.24101,15.40258 31.38442,37.96698 33.6456,62.50712 3.44761,33.96175 -10.80344,69.85807 -32.187,95.82053 -28.13221,33.99385 -68.68699,55.33553 -112.64053,59.28074 -26.54799,2.54105 -59.56968,-1.33786 -84.44621,-11.35966 l 3.61162,-2.14743 c 2.96955,0.0377 5.9405,-0.0168 8.90656,-0.16331 13.10161,-0.57576 22.15613,-2.72598 34.82295,-4.50283 9.57794,-1.34415 18.7497,-1.76917 28.43022,-3.64162 39.36836,-7.61475 63.88547,-21.87837 90.48929,-50.89203 l -1.36089,-1.39579 c -25.22199,17.60793 -48.19675,26.8104 -79.64398,21.28864 -9.95899,-1.70566 -19.58926,-4.98647 -28.52164,-9.71891 -0.61764,-0.39641 -2.29957,-1.15781 -2.37774,-2.06089 0.54506,-0.59182 5.83093,0.14097 7.01735,0.22123 20.76243,0.11795 39.94761,-0.0977 60.37505,-5.05277 29.73738,-7.21486 59.20258,-20.14828 76.01491,-46.86446 -19.26195,13.91466 -42.64149,21.6983 -66.43279,20.28157 -28.59283,-1.70286 -47.35927,-13.32633 -44.87476,-44.5628 -64.77598,8.63438 -99.02945,47.84362 -128.06894,102.58943 5.4757,-28.9006 19.51878,-67.28353 36.31506,-91.17393 29.41146,-41.83402 61.8853,-60.69468 111.40665,-69.85737 l -1.24923,-2.22908 c -50.62822,4.05199 -93.03731,23.69778 -126.36188,62.85677 -18.57732,22.16589 -32.19607,48.05088 -39.94273,75.91581 -11.7463,42.24159 -3.72258,49.80261 -35.29962,84.36594 z"
     fill="rgb(237,104,51)"
     id="path11"
     style="fill:#ed9933;fill-opacity:1;stroke-width:0.697897" />
  <path
     d="m 620.18829,814.34853 23.8262,0.25124 c 13.24608,37.81902 20.94388,33.77122 47.96644,61.51262 l -0.0349,1.1934 -1.7936,0.66998 c -1.4935,0.30708 -3.00095,0.51645 -4.51539,0.6351 -6.03681,0.46061 -19.91797,-1.42372 -24.74044,-4.48051 -15.05363,-9.54025 -29.48614,-25.44531 -43.43709,-37.06529 z"
     fill="#ffffff"
     id="path16"
     style="fill:#652801;fill-opacity:1;stroke-width:0.697897" />
  <metadata
     id="metadata57">
    <recraft-signature>{&quot;signed_by&quot;: &quot;recraft&quot;, &quot;signature_b64&quot;: &quot;i0BNYlebR4FFeYKUPmeNTE+99lw7ursbqRk/vsu3vpnBjWeLk607wg5bFtz/FWdWNs6qmHhw7eExvMJsCfceBQ==&quot;, &quot;signing_algo&quot;: &quot;Ed25519&quot;, &quot;generation_timestamp&quot;: 1775393879, &quot;identifier&quot;: &quot;7d2806ce-72eb-4a9a-a498-925817616dfa&quot;}</recraft-signature>
  </metadata>
</svg>
